<svg width="241" height="40" viewBox="0 0 241 40" fill="none" xmlns="http://www.w3.org/2000/svg">
<g id="img_title2" clip-path="url(#clip0_730_4387)">
<rect width="240" height="40" transform="translate(0.5)" fill="white"/>
<g id="Group 10">
<path id="Vector" d="M14.1012 39.4884V25.1778H0.523926V21.2052H14.1012V13.0396H0.523926V9.06695H14.1012V0.605148H18.1153V9.06695H31.6312V13.0396H18.1153V21.2052H31.6312V25.1778H18.1153V39.4884H14.1012Z" fill="#4A3636"/>
<path id="Vector_2" d="M45.224 37.9313V22.1242H37.3032V18.1516H45.224V12.8041H49.238V18.1516H62.0018V20.1417C62.0018 25.2841 57.7728 29.4695 52.5767 29.4695H52.1392V25.4968H52.5767C54.7718 25.4968 56.752 24.1372 57.5656 22.1242H49.238V37.9313H45.224Z" fill="#4A3636"/>
<path id="Vector_3" d="M70.943 37.9996V34.027H71.3805C85.7407 34.027 97.4145 22.4433 97.4145 8.20102V7.76805H101.429V8.20102C101.429 24.6309 87.9511 38.0072 71.3805 38.0072H70.943V37.9996ZM68.9321 11.5508V7.57816H78.2881V11.5508H68.9321Z" fill="#4A3636"/>
<path id="Vector_4" d="M108.114 26.5527L121.185 13.6169C122.973 11.9154 125.375 10.9431 127.778 10.9431C130.18 10.9431 132.621 11.8926 134.432 13.6169L147.51 26.5602L144.632 29.4087L131.562 16.4729C130.587 15.4551 129.282 14.9158 127.785 14.9158C126.289 14.9158 125.03 15.4551 124.009 16.4729L111 29.4087L108.122 26.5602L108.114 26.5527ZM142.936 14.7259C141.601 14.7259 140.357 14.217 139.421 13.2903C138.484 12.3712 137.97 11.133 137.97 9.81135C137.97 7.06923 140.196 4.83604 142.936 4.83604C144.295 4.83604 145.553 5.37535 146.459 6.34003C147.388 7.19836 147.894 8.39851 147.894 9.80375C147.894 12.5155 145.668 14.7183 142.928 14.7183L142.936 14.7259ZM142.936 8.19342C142.069 8.19342 141.363 8.92263 141.363 9.81894C141.363 10.2443 141.531 10.6773 141.8 10.9431C142.084 11.2242 142.483 11.3761 142.936 11.3761C143.834 11.3761 144.509 10.7077 144.509 9.81894C144.509 9.36319 144.356 8.9758 144.072 8.69475C143.75 8.37572 143.343 8.20102 142.936 8.20102V8.19342Z" fill="#4A3636"/>
<path id="Vector_5" d="M184.174 19.648H156.206V23.6207H184.174V19.648Z" fill="#4A3636"/>
<path id="Vector_6" d="M194.436 37.9996V34.027H194.874C209.234 34.027 220.908 22.4433 220.908 8.20102V7.76805H224.922V8.20102C224.922 24.6309 211.444 38.0072 194.874 38.0072H194.436V37.9996ZM192.425 11.5508V7.57816H201.789V11.5508H192.425Z" fill="#4A3636"/>
<path id="Vector_7" d="M236.381 39.4884V35.5158H240.394V39.4884H236.381ZM236.381 30.1531V0.605133H240.394V30.1531H236.381Z" fill="#4A3636"/>
</g>
</g>
<defs>
<clipPath id="clip0_730_4387">
<rect width="240" height="40" fill="white" transform="translate(0.5)"/>
</clipPath>
</defs>
</svg>
