<svg width="24" height="24" viewBox="0 0 24 24" fill="none" xmlns="http://www.w3.org/2000/svg">
<g id="Icon=arrow-bottom">
<path id="Vector" d="M8.41493 9.00491L12.2949 12.8849L16.1749 9.00491C16.2675 8.91233 16.3774 8.83889 16.4984 8.78878C16.6194 8.73868 16.749 8.71289 16.8799 8.71289C17.0109 8.71289 17.1405 8.73868 17.2615 8.78878C17.3824 8.83889 17.4924 8.91233 17.5849 9.00491C17.6775 9.09749 17.751 9.2074 17.8011 9.32837C17.8512 9.44933 17.877 9.57898 17.877 9.70991C17.877 9.84084 17.8512 9.97049 17.8011 10.0915C17.751 10.2124 17.6775 10.3223 17.5849 10.4149L12.9949 15.0049C12.6049 15.3949 11.9749 15.3949 11.5849 15.0049L6.99493 10.4149C6.90223 10.3224 6.82868 10.2125 6.7785 10.0915C6.72832 9.97056 6.70249 9.84088 6.70249 9.70991C6.70249 9.57894 6.72832 9.44926 6.7785 9.32829C6.82868 9.20731 6.90223 9.09742 6.99493 9.00491C7.38493 8.62491 8.02493 8.61491 8.41493 9.00491Z" fill="#fff"/>
</g>
</svg>
