<svg width="24" height="24" viewBox="0 0 24 24" fill="none" xmlns="http://www.w3.org/2000/svg">
<g id="Icon=gifts">
<path id="Vector" d="M20.1481 7.18668H17.7463C18.09 6.68676 18.2811 6.09777 18.2963 5.49131C18.31 5.0293 18.2291 4.56937 18.0586 4.13976C17.8881 3.71016 17.6315 3.31996 17.3047 2.99313C16.9778 2.66629 16.5876 2.40973 16.158 2.2392C15.7284 2.06868 15.2685 1.98778 14.8065 2.00149C14.3798 2.0106 13.9595 2.10783 13.5722 2.28709C13.1848 2.46635 12.8387 2.72376 12.5556 3.04316C12.3467 3.28138 12.1607 3.53868 12 3.81168C11.8393 3.53868 11.6533 3.28138 11.4444 3.04316C11.1613 2.72376 10.8152 2.46635 10.4278 2.28709C10.0405 2.10783 9.62025 2.0106 9.19352 2.00149C8.73151 1.98778 8.27158 2.06868 7.84198 2.2392C7.41237 2.40973 7.02217 2.66629 6.69534 2.99313C6.3685 3.31996 6.11194 3.71016 5.94142 4.13976C5.77089 4.56937 5.68999 5.0293 5.7037 5.49131C5.71895 6.09777 5.91002 6.68676 6.2537 7.18668H3.85185C3.36071 7.18668 2.88968 7.38178 2.54239 7.72907C2.19511 8.07636 2 8.54739 2 9.03853V12.0015C1.99991 12.4284 2.14733 12.8422 2.41729 13.1729C2.68726 13.5036 3.0632 13.7309 3.48148 13.8163V19.4089C3.48148 19.9 3.67659 20.3711 4.02388 20.7184C4.37117 21.0656 4.84219 21.2608 5.33333 21.2608H18.6667C19.1578 21.2608 19.6288 21.0656 19.9761 20.7184C20.3234 20.3711 20.5185 19.9 20.5185 19.4089V13.8163C20.9368 13.7309 21.3127 13.5036 21.5827 13.1729C21.8527 12.8422 22.0001 12.4284 22 12.0015V9.03853C22 8.54739 21.8049 8.07636 21.4576 7.72907C21.1103 7.38178 20.6393 7.18668 20.1481 7.18668ZM19.7778 11.6311H13.1111V9.4089H19.7778V11.6311ZM14.2222 4.51723C14.3042 4.42626 14.4041 4.35323 14.5156 4.30272C14.6272 4.2522 14.7479 4.22531 14.8704 4.22371H14.9028C15.0595 4.22327 15.2146 4.25435 15.3591 4.31509C15.5035 4.37584 15.6343 4.46501 15.7435 4.57731C15.8528 4.68961 15.9384 4.82274 15.9952 4.96878C16.052 5.11483 16.0788 5.2708 16.0741 5.42742C16.0725 5.54985 16.0456 5.67064 15.9951 5.78218C15.9446 5.89372 15.8715 5.99361 15.7806 6.07557C15.1417 6.64223 14.0907 6.93297 13.2222 7.07186C13.3611 6.20705 13.6519 5.15612 14.2222 4.51723ZM8.26852 4.56631C8.48831 4.34888 8.78436 4.22594 9.09352 4.22371H9.12963C9.25206 4.22531 9.37285 4.2522 9.48439 4.30272C9.59593 4.35323 9.69582 4.42626 9.77778 4.51723C10.3444 5.15612 10.6352 6.20612 10.7731 7.07371C9.91204 6.9339 8.85185 6.64316 8.21944 6.07557C8.12848 5.99361 8.05544 5.89372 8.00493 5.78218C7.95442 5.67064 7.92752 5.54985 7.92593 5.42742C7.92183 5.26818 7.95008 5.10976 8.00897 4.96175C8.06785 4.81374 8.15615 4.67921 8.26852 4.56631ZM4.22222 9.4089H10.8889V11.6311H4.22222V9.4089ZM5.7037 13.8533H10.8889V19.0385H5.7037V13.8533ZM13.1111 19.0385V13.8533H18.2963V19.0385H13.1111Z" fill="#9ED0E0"/>
</g>
</svg>
